<svg xmlns="http://www.w3.org/2000/svg" viewBox="0 0 400 400" width="400" height="400">
  <defs>
    <!-- Gradient definitions for the swirl segments -->
    <linearGradient id="grad1" x1="0%" y1="0%" x2="100%" y2="100%">
      <stop offset="0%" style="stop-color:#ff6b35;stop-opacity:1" />
      <stop offset="100%" style="stop-color:#f7931e;stop-opacity:1" />
    </linearGradient>

    <linearGradient id="grad2" x1="0%" y1="0%" x2="100%" y2="100%">
      <stop offset="0%" style="stop-color:#1e88e5;stop-opacity:1" />
      <stop offset="100%" style="stop-color:#1976d2;stop-opacity:1" />
    </linearGradient>

    <linearGradient id="grad3" x1="0%" y1="0%" x2="100%" y2="100%">
      <stop offset="0%" style="stop-color:#26c6da;stop-opacity:1" />
      <stop offset="100%" style="stop-color:#00acc1;stop-opacity:1" />
    </linearGradient>

    <linearGradient id="grad4" x1="0%" y1="0%" x2="100%" y2="100%">
      <stop offset="0%" style="stop-color:#f5f5f5;stop-opacity:1" />
      <stop offset="100%" style="stop-color:#e0e0e0;stop-opacity:1" />
    </linearGradient>
  </defs>

  <!-- Swirl segments forming the S shape -->
  <g transform="translate(200,200)">
    <!-- Orange segment (top-left) -->
    <path d="M -60,-80 Q -100,-120 -140,-80 Q -180,-40 -140,0 Q -100,40 -60,0 Q -20,-40 -60,-80 Z"
          fill="url(#grad1)" opacity="0.9"/>

    <!-- Blue segment (top-right) -->
    <path d="M 60,-80 Q 100,-120 140,-80 Q 180,-40 140,0 Q 100,40 60,0 Q 20,-40 60,-80 Z"
          fill="url(#grad2)" opacity="0.9"/>

    <!-- Light blue/cyan segment (bottom-right) -->
    <path d="M 60,80 Q 100,120 140,80 Q 180,40 140,0 Q 100,-40 60,0 Q 20,40 60,80 Z"
          fill="url(#grad3)" opacity="0.9"/>

    <!-- White/light gray segment (bottom-left) -->
    <path d="M -60,80 Q -100,120 -140,80 Q -180,40 -140,0 Q -100,-40 -60,0 Q -20,40 -60,80 Z"
          fill="url(#grad4)" opacity="0.9"/>

    <!-- Central connecting elements -->
    <circle cx="0" cy="0" r="25" fill="url(#grad4)" opacity="0.8"/>

    <!-- Additional swirl details for more dynamic look -->
    <path d="M -40,-60 Q -60,-80 -80,-60 Q -100,-40 -80,-20 Q -60,0 -40,-20 Q -20,-40 -40,-60"
          fill="url(#grad1)" opacity="0.7"/>

    <path d="M 40,-60 Q 60,-80 80,-60 Q 100,-40 80,-20 Q 60,0 40,-20 Q 20,-40 40,-60"
          fill="url(#grad2)" opacity="0.7"/>

    <path d="M 40,60 Q 60,80 80,60 Q 100,40 80,20 Q 60,0 40,20 Q 20,40 40,60"
          fill="url(#grad3)" opacity="0.7"/>

    <path d="M -40,60 Q -60,80 -80,60 Q -100,40 -80,20 Q -60,0 -40,20 Q -20,40 -40,60"
          fill="url(#grad4)" opacity="0.7"/>
  </g>
</svg>